#!OML:ASF H:\ManfredObstacles\Project 1\Capture day 1\Session 1\Male.ASF
:FULLY-SPECIFIED
:DEGREES
490
root -2.79446 16.0029 2.653 -170.463 2.72234 -177.695
lowerback -7.49627 0.319811 1.58868
upperback 2.75466 0.264624 0.218248
thorax 7.10678 0.202927 -0.627591
lowerneck 1.66138 -1.4217 -5.78757
upperneck -4.22348 -1.62723 8.38985
head -1.52679 -0.824481 3.81016
rclavicle 2.73329e-015 6.16232e-015
rhumerus -28.6402 -24.7428 -80.2743
rradius 21.974
rwrist 40.7683
rhand -0.0657937 -6.8579
rfingers 7.12502
rthumb 25.5274 -35.1677
lclavicle 2.73329e-015 6.16232e-015
lhumerus -27.8501 18.6074 79.928
lradius 18.2792
lwrist -31.849
lhand -9.90037 9.42378
lfingers 7.12502
lthumb 16.0796 38.7766
rfemur -11.6973 -4.64451 26.1753
rtibia 32.8408
rfoot -30.4773 19.4266
rtoes 17.6415
lfemur -42.6923 -3.99622 -15.798
ltibia 35.8147
lfoot -3.78029 -4.44772
ltoes 1.62366
491
root -2.80328 16.0024 2.44472 -170.42 3.18127 -177.645
lowerback -7.801 0.481465 1.57742
upperback 2.74235 0.478061 0.1599
thorax 7.27504 0.308548 -0.651525
lowerneck 1.55681 -1.41857 -5.84832
upperneck -4.08939 -1.62701 8.43789
head -1.46375 -0.821727 3.83505
rclavicle -3.97569e-016 -3.18055e-015
rhumerus -27.8458 -23.6097 -81.2147
rradius 22.429
rwrist 39.8397
rhand 0.0368156 -6.93979
rfingers 7.12502
rthumb 25.6256 -35.2355
lclavicle -3.97569e-016 -3.18055e-015
lhumerus -28.3349 19.9279 79.0119
lradius 17.7451
lwrist -33.3324
lhand -9.88217 9.13718
lfingers 7.12502
lthumb 16.0971 38.4886
rfemur -10.6322 -4.55644 26.0148
rtibia 32.2851
rfoot -30.2156 19.6725
rtoes 18.3906
lfemur -42.4841 -3.77743 -15.6913
ltibia 33.5875
lfoot -3.45655 -5.01271
ltoes 0.892779
492
root -2.81536 16.0029 2.2268 -170.506 3.51131 -177.88
lowerback -8.05612 0.5749 1.32799
upperback 2.69293 0.63286 0.0103001
thorax 7.37188 0.375391 -0.644953
lowerneck 1.75209 -1.41385 -6.04957
upperneck -4.06028 -1.62864 8.65472
head -1.48833 -0.82685 3.95448
rclavicle -2.03754e-015 2.98177e-015
rhumerus -27.2777 -22.4768 -82.049
rradius 22.8458
rwrist 38.9858
rhand -0.216951 -6.6941
rfingers 7.12502
rthumb 25.3826 -35.0245
lclavicle -2.03754e-015 2.98177e-015
lhumerus -28.9264 21.1876 78.0041
lradius 17.1242
lwrist -34.6416
lhand -9.83401 9.03929
lfingers 7.12502
lthumb 16.1435 38.387
rfemur -9.40145 -4.58098 25.4977
rtibia 31.7344
rfoot -29.7635 20.1046
rtoes 18.9727
lfemur -42.1067 -3.40799 -16.1149
ltibia 31.9392
lfoot -3.36641 -5.83829
ltoes 0.743663
493
root -2.82612 15.9984 2.00521 -170.659 3.75252 -178.052
lowerback -8.2831 0.629028 1.10103
upperback 2.65161 0.734768 -0.125913
thorax 7.45972 0.417387 -0.644032
lowerneck 2.04013 -1.36893 -6.0386
upperneck -4.09694 -1.57211 8.76636
head -1.55735 -0.806342 3.99697
rclavicle -7.55382e-015 0
rhumerus -26.8885 -21.4357 -82.8221
rradius 23.3684
rwrist 38.2032
rhand -0.559613 -6.3683
rfingers 7.12502
rthumb 25.0543 -34.745
lclavicle -7.55382e-015 0
lhumerus -29.5108 22.7375 76.7951
lradius 16.3856
lwrist -36.1838
lhand -9.789 9.0913
lfingers 7.12502
lthumb 16.1868 38.4355
rfemur -8.14932 -4.42896 25.0658
rtibia 31.3067
rfoot -29.4857 20.3677
rtoes 19.3418
lfemur -41.589 -2.94833 -16.5712
ltibia 30.7806
lfoot -3.26666 -6.90561
ltoes 1.14857
494
root -2.83356 15.9821 1.78028 -170.86 3.94381 -177.651
lowerback -8.42081 0.740527 1.38821
upperback 2.63217 0.84732 -0.0994303
thorax 7.52531 0.485125 -0.759782
lowerneck 2.14169 -1.35769 -5.82864
upperneck -4.01625 -1.56319 8.67065
head -1.55106 -0.805798 3.92162
rclavicle 2.23633e-015 5.76476e-015
rhumerus -26.606 -20.578 -83.4654
rradius 23.9197
rwrist 37.4407
rhand -0.402831 -6.52364
rfingers 7.12502
rthumb 25.2045 -34.8793
lclavicle 2.23633e-015 5.76476e-015
lhumerus -30.2116 24.5433 75.4065
lradius 15.7516
lwrist -38.052
lhand -9.69996 9.14214
lfingers 7.12502
lthumb 16.2726 38.4793
rfemur -6.8061 -4.01679 25.3064
rtibia 30.9529
rfoot -28.9349 20.3694
rtoes 19.2536
lfemur -40.9491 -2.3447 -16.4587
ltibia 30.1622
lfoot -3.08908 -8.05117
ltoes 1.4751
